<svg id="图层_1" data-name="图层 1" xmlns="http://www.w3.org/2000/svg" xmlns:xlink="http://www.w3.org/1999/xlink" viewBox="0 0 235.94 72.02"><defs><style>.cls-1{fill:url(#未命名的渐变_17);}.cls-2{fill:#fff;}</style><linearGradient id="未命名的渐变_17" y1="36.01" x2="235.94" y2="36.01" gradientUnits="userSpaceOnUse"><stop offset="0" stop-color="#faee00"/><stop offset="1" stop-color="#f8b62d"/></linearGradient></defs><title>icon</title><path class="cls-1" d="M214.92,0H0V46.23A25.79,25.79,0,0,0,25.79,72H235.94V21A21,21,0,0,0,214.92,0Z"/><path class="cls-2" d="M44,31.08h9.12l2.09-9.88H42V18.39H74.62V21.2H58.11L56,31.08H69.56V48.32h6.59v2.85H40.44V48.32h9.08l3-14.42H44Zm8.4,17.23H66.63V33.9H55.42Z"/><path class="cls-2" d="M87.36,38.6a33.39,33.39,0,0,1-4.26,6.87l-1.93-2.25a30.54,30.54,0,0,0,5.74-10.77l2.61.6q-.32,1-1,3h10V32.85h3V36h13.34V38.6H101.5v4h11.85V45.1H101.5v4.1h15.14v2.65H82.54V49.2h16V45.1H87.36V42.61H98.52v-4ZM86.15,17.35H112.3V31.57H86.15ZM89,23.29h20.45V19.84H89Zm20.45,5.82V25.62H89v3.49Z"/><path class="cls-2" d="M138.09,17.95v2.73H125.4V34.26q-.16,11.57-3.25,18.56L120,50.89q2.49-6,2.61-16.63V17.95Zm-11,30.37a1.49,1.49,0,0,0,1.12-1.41V26.34h9.32V37.71q0,2.73-2.85,2.73-.64,0-2.17-.08L131.86,38q1.45.08,2,.08Q135,38.11,135,37V28.79h-4.26v18.6a53.16,53.16,0,0,0,6.79-3.05l.44,2.49a48.87,48.87,0,0,1-9.76,4ZM146.6,29.64h2.45v6.91q-.12,6.71-2.65,10.77-2.41,3.65-8,5.78l-1.49-2.29q5.38-2,7.55-5.3a18.5,18.5,0,0,0,2.13-9Zm-7.07-11.73h16.91v2.65h-7.31q-.32,2.53-.76,4.46H155V44.38h-2.61v-17h-9.24V44.3H140.5V25h5.22q.36-1.93.64-4.46h-6.83Zm10.64,27.15a57.65,57.65,0,0,1,7.07,6.19l-1.93,2a42,42,0,0,0-6.91-6.47Z"/><path class="cls-2" d="M162.47,22.73h2.93V52.94h-2.93Zm6-7a43.89,43.89,0,0,1,5,7.27l-2.57,1.33a44.13,44.13,0,0,0-5.1-7.43Zm3,12.77h14.46v15.1H171.47ZM183,40.84V31.28h-8.6v9.56Zm3.17,11.81L185.45,50l4.42.08q2.29,0,2.29-2.65V21.2H176.57V18.39h18.52V48.16q0,4.5-4.62,4.5Z"/></svg>