<svg id="图层_1" data-name="图层 1" xmlns="http://www.w3.org/2000/svg" viewBox="0 0 150.13 127.32"><defs><style>.cls-1{fill:#ff5353;}.cls-2{fill:none;stroke:#727171;stroke-miterlimit:10;}.cls-3{fill:#595757;}</style></defs><title>icon</title><path class="cls-1" d="M75.32,0A26.11,26.11,0,0,0,49.2,26.11c0,11,15.27,32,22.46,41.22a4.63,4.63,0,0,0,7.32,0c7.19-9.25,22.46-30.19,22.46-41.22A26.11,26.11,0,0,0,75.32,0Zm0,36.24A11.42,11.42,0,1,1,86.74,24.82,11.42,11.42,0,0,1,75.32,36.24Z"/><rect class="cls-2" x="0.45" y="82.16" width="149.17" height="44.67" rx="9.83" ry="9.83"/><path class="cls-3" d="M15.26,103.14H42.51v2.18H15.26Z"/><path class="cls-3" d="M47,101.48l-.21.45-1.7-1.09a42.74,42.74,0,0,0,3.12-10.46l2.06.42L49.57,94h4.61v2.09H49q-.58,1.94-1.42,4.06h6.52v1.94H51.42v3.73h3.12v2H51.42v7a19.35,19.35,0,0,0,3.06-2.06l.36,1.88a21.06,21.06,0,0,1-5.33,2.88l-.88-1.82q.82-.33.82-.94v-6.91H46.06v-2h3.39v-3.73H47Zm26.19,14.31-.39,2.09h-3.3q-6.76-.09-9.12-1.64a8.79,8.79,0,0,1-1.91-1.64A14.17,14.17,0,0,1,56,118.21l-1.49-1.46a13.57,13.57,0,0,0,2.58-3.91,21.46,21.46,0,0,1-2.52-6.37l1.64-.61a19.24,19.24,0,0,0,1.7,4.76A30,30,0,0,0,59,103.54H55.42V102a47.92,47.92,0,0,0,3.3-6.7H55.21V93.44H60.7v1.79a61.42,61.42,0,0,1-3,6.52h3.12v1.18a30.71,30.71,0,0,1-1.52,9.7,7.84,7.84,0,0,0,2.67,2.12,17.26,17.26,0,0,0,6.46,1.15Q70.82,115.91,73.19,115.78Zm-1.85-12.46H67.12v2.33h4.55v1.73H67.12v2.4h5.31v1.82H67.12v3h-2v-3H61.09v-1.82h4.06v-2.4h-3.3v-1.73h3.3v-2.33h-3v-1.76h3V99.11h-4V97.35h4V94.78h-3V93h3V90.78h2V93h4.21v4.33h1.42v1.76H71.34Zm-4.21-8.55v2.58h2.37V94.78Zm0,4.33v2.46h2.37V99.11Z"/><path class="cls-3" d="M75.85,107.39H94.31v-1.91H96.5v1.91h6.67v2.12H96.5v6.43q0,2.55-2.76,2.55H89.86l-.48-2.15q2.12.15,3.61.15,1.33,0,1.33-1.09v-5.88H75.85ZM98.59,91.78V99H81.22v2.12a1.15,1.15,0,0,0,1.3,1.3H98.74a1.42,1.42,0,0,0,1.24-.61,7.77,7.77,0,0,0,.49-2.39l2.06.67a11.62,11.62,0,0,1-.61,2.94,2.69,2.69,0,0,1-2.55,1.42H81.73q-2.7,0-2.7-2.55V91.78ZM81.22,97H96.41V93.75H81.22Zm1.61,13.43a38.85,38.85,0,0,1,5.12,4.76l-1.64,1.64a32.62,32.62,0,0,0-5-4.91Z"/><path class="cls-3" d="M106,103.81h2.06V93.72h3.33a20.66,20.66,0,0,0,.91-3.3l2.27.3a18.81,18.81,0,0,1-.94,3h4.15v21.92q0,2.55-2.42,2.55h-2.55l-.55-2q1.76.12,2.46.12,1,0,1-1.36v-9.09H110q-.18,7.79-2.46,12.67l-1.7-1.55A28.23,28.23,0,0,0,108,105.81h-2Zm9.76,0V95.75h-5.7v8.06Zm-3.18,3.67a41.52,41.52,0,0,1,2.18,5.61l-1.76.49a35.38,35.38,0,0,0-2.12-5.55Zm-.09-10.19a26.07,26.07,0,0,1,2.24,4.58l-1.64.42a26.9,26.9,0,0,0-2.18-4.49ZM118.11,117a13.4,13.4,0,0,0,2.39-4.49,24.17,24.17,0,0,0,.61-6.15V100h8.46v15.46q0,.61.58.61h.73a2,2,0,0,0,.58-.12.56.56,0,0,0,.3-.3,17.34,17.34,0,0,0,.24-4.21l2,.61a32.15,32.15,0,0,1-.18,4,2.36,2.36,0,0,1-.76,1.61,3.66,3.66,0,0,1-1.88.36h-1.06q-2.58,0-2.58-2.3V102h-4.33v4.33a26.66,26.66,0,0,1-.73,6.76,15.69,15.69,0,0,1-2.67,5.37Zm1-22.46h5.73a26.26,26.26,0,0,0-1.46-3.7l2.27-.36q.58,1.39,1.42,4.06h5.79v2.15H119.08Z"/></svg>