<svg id="图层_1" data-name="图层 1" xmlns="http://www.w3.org/2000/svg" viewBox="0 0 34.26 34.26"><defs><style>.cls-1{fill:#ff5353;}</style></defs><title>icon</title><path class="cls-1" d="M17.13,0A17.13,17.13,0,1,0,34.26,17.13,17.13,17.13,0,0,0,17.13,0Zm6.4,20.1a.5.5,0,0,0-.14.44l1.25,7.29a.5.5,0,0,1-.72.53l-6.55-3.44a.5.5,0,0,0-.46,0l-6.55,3.44a.5.5,0,0,1-.72-.53l1.25-7.29a.5.5,0,0,0-.14-.44l-5.3-5.17a.5.5,0,0,1,.28-.85L13,13a.5.5,0,0,0,.38-.27l3.28-6.64a.5.5,0,0,1,.89,0l3.28,6.64a.5.5,0,0,0,.38.27l7.32,1.06a.5.5,0,0,1,.28.85Z"/></svg>