<svg id="图层_1" data-name="图层 1" xmlns="http://www.w3.org/2000/svg" viewBox="0 0 285 70.25"><defs><style>.cls-1{fill:#ff5352;}.cls-2,.cls-3{fill:#fff;}.cls-2{fill-rule:evenodd;}</style></defs><title>icon</title><rect class="cls-1" width="285" height="70.25" rx="10.13" ry="10.13"/><path class="cls-2" d="M59.79,27.36a13.92,13.92,0,0,0,2.49-4.6,18.39,18.39,0,0,0,.87-5.7,9.1,9.1,0,0,1,3.19,1.68A3.09,3.09,0,0,1,67.12,21a10.52,10.52,0,0,1-1.22,4.87c-.83,1.6-1.68,2.39-2.56,2.39A6.18,6.18,0,0,1,62,28c-.57-.15-1.3-.37-2.18-.66ZM34.9,54.25a34.51,34.51,0,0,1-5.43-8.75,23.11,23.11,0,0,1-1.66-8.75,24.74,24.74,0,0,1,2-9.76,25.44,25.44,0,0,1,5.71-8.33,26.28,26.28,0,0,1,8.54-5.55,27,27,0,0,1,20.1,0,26.31,26.31,0,0,1,8.52,5.57A25.54,25.54,0,0,1,78.4,27a24.64,24.64,0,0,1,0,19.53,25.1,25.1,0,0,1-5.73,8.31,26.72,26.72,0,0,1-18.56,7.53q-6.33,0-10.14-2c-2.55-1.32-3.81-3.05-3.81-5.19a3.83,3.83,0,0,1,.25-1.35,5.77,5.77,0,0,1,.85-1.4,5.3,5.3,0,0,0,1,.78,1.72,1.72,0,0,0,.83.25,3.57,3.57,0,0,0,1.77-1A16.15,16.15,0,0,0,47.3,50,13.67,13.67,0,0,0,49,47.1,7.47,7.47,0,0,0,49.65,45c0-.18-.28-.59-.82-1.22A2.91,2.91,0,0,1,48,41.9a10.63,10.63,0,0,1,.76-3.4,47.9,47.9,0,0,1,2.2-5,30.55,30.55,0,0,1,2.73-4.63,4.76,4.76,0,0,1,2.15-1.7A3.7,3.7,0,0,1,56.7,27a3.68,3.68,0,0,0,2.84-1.6A15.23,15.23,0,0,0,61,21.73,13.76,13.76,0,0,0,61.7,18a2.54,2.54,0,0,0-.41-1.69,2.35,2.35,0,0,0-1.7-.44,18.49,18.49,0,0,0-3.45.28,5.53,5.53,0,0,0-2.16.82A17.85,17.85,0,0,0,51.1,20q-2,2.44-4.06,5.58a60.88,60.88,0,0,0-6.19,12.24q-2.43,6.51-2.42,9.76a3.61,3.61,0,0,0,.29,1.34,13,13,0,0,0,1,1.87,9.34,9.34,0,0,0-1.49,2.42,6.41,6.41,0,0,0-.49,2.41q0,4.05,4.49,6.62t11.85,2.57a29.18,29.18,0,0,0,11-2.16,28.74,28.74,0,0,0,9.41-6.08,27.76,27.76,0,0,0,6.27-9.13A27,27,0,0,0,83,36.74a26.74,26.74,0,0,0-2.19-10.68A28.8,28.8,0,0,0,65.16,10.83,29.33,29.33,0,0,0,54.11,8.71a29,29,0,0,0-11,2.13,28.71,28.71,0,0,0-9.35,6.1A27.53,27.53,0,0,0,27.49,26a27.06,27.06,0,0,0-2.21,10.72,25.91,25.91,0,0,0,1.52,9,22,22,0,0,0,4.49,7.39,5.3,5.3,0,0,0,1.21,1,2.15,2.15,0,0,0,1.11.36,2.92,2.92,0,0,0,.48-.08c.22-.05.49-.14.81-.23Zm9.69.12a17,17,0,0,0,4.06-3.93,14.23,14.23,0,0,0,2.27-4.89,12,12,0,0,1,2.31,1.78,2.08,2.08,0,0,1,.6,1.39,7.86,7.86,0,0,1-2,4.52q-2,2.6-3.8,2.6a3.9,3.9,0,0,1-1.42-.38A15.45,15.45,0,0,1,44.58,54.36Z"/><path class="cls-3" d="M97.12,28.69Q95.56,29.81,94,30.85l-1.84-2.2a38.24,38.24,0,0,0,12.4-12l2.88.68q-1,1.56-2,3h13.8v2.2a40.3,40.3,0,0,1-5,5.28H124V40h-9.12v8.16q0,2,1.72,2h6.44a1.73,1.73,0,0,0,1.52-.76q.56-.92.76-5.44l2.76.88q-.44,5.8-1.48,7a3.87,3.87,0,0,1-3,1.08h-7.84q-3.72,0-3.72-4.2V40H110q-.28.76-.92,2.2-3.2,6.92-14.92,11.44l-1.84-2.28q10.48-3.84,13.84-9.64.16-.32.76-1.72H97.12Zm13.4-.84A42.23,42.23,0,0,0,115.44,23H103.28a39.7,39.7,0,0,1-5.08,4.84Zm-2.76,9.4a31.6,31.6,0,0,0,.92-6.72H99.92v6.72Zm13.52,0V30.52h-9.72a34.16,34.16,0,0,1-.8,6.72Z"/><path class="cls-3" d="M152,40.69q-.76,6.8-3.6,9.2-3.12,3-13.88,3.72L133.32,51q9.6-.48,12.6-2.84,2.68-2.32,3.16-7.8Zm3.8-14.6V28.6h10.76q0,4.4-.92,5.56-.88,1.32-4.16,1.32l-1.84,0-.56-2q1.44.08,2,.08,1.84,0,2.32-.6a5,5,0,0,0,.4-2.08h-8v4.56H153V30.81h-7a12.22,12.22,0,0,1-1.88,2.64,14.64,14.64,0,0,1-5.36,3h24.56V47.32h-2.84V39h-19.6v8.32H138V36.69a30.21,30.21,0,0,1-3.08.84l-1.44-2.28q6.08-1.32,8.44-3.48.56-.64.8-1h-7.88l1.4-7h8.08V21.24H135.2V18.89h9.12V16.81h2.8v2.08H153V16.81h2.8v2.08h8.84v7.2Zm-17.16,0L138,28.6h5.92a9.48,9.48,0,0,0,.44-2.52Zm8.52,0a23.82,23.82,0,0,1-.36,2.52H153V26.08Zm0-4.84v2.56H153V21.24Zm5.68,25.52A87.55,87.55,0,0,1,167,51.36l-1.56,2.4a77.94,77.94,0,0,0-14-4.84Zm3-25.52v2.56h6.12V21.24Z"/><path class="cls-3" d="M183.68,29a54.18,54.18,0,0,1-9.2,9L172.56,36a47.48,47.48,0,0,0,8.84-8.64Zm-8.12-11.28a39.91,39.91,0,0,1,6.56,5.16l-2,2a42,42,0,0,0-6.52-5.2Zm27.72,21.32V53.6h-2.8v-2H180v2h-2.84V39.08ZM180,48.93h20.52V41.81H180Zm9.48-25.84a24.58,24.58,0,0,1-4.36,5.84l-1.8-2.28a21.07,21.07,0,0,0,5.64-10.16l2.88.36q-.44,1.64-1.08,3.44h15.4v2.36a31.63,31.63,0,0,1-3.92,6.64l-2.12-1.68A26.19,26.19,0,0,0,203,23.08h-6.44q-.16,2.36-.32,3.52,2.52,6.64,12.16,8.84l-1.2,2.72q-9.24-2.52-12-8.56-2.88,5.72-11.84,8.36l-1.24-2.6q9.68-2.52,11.24-8.64a30.19,30.19,0,0,0,.36-3.64Z"/><path class="cls-3" d="M211.8,29.12h8.64V46.85q1.6-1.4,4.12-3.92l.8,3a51.92,51.92,0,0,1-7.44,6.16l-1.12-2.56a2.35,2.35,0,0,0,.88-1.76V31.89H211.8Zm4.8-11.84a47.92,47.92,0,0,1,6.76,6.16l-2,2a42.63,42.63,0,0,0-6.8-6.2Zm16-.12a38.09,38.09,0,0,1-1.28,4H247q0,21.72-.56,27.08-.6,5-5.68,5-1.08,0-3.8-.12l-.68-2.6q3.2.16,4.12.16,2.76,0,3.24-3.56t.52-23.24H230A28.61,28.61,0,0,1,224.72,31l-1.8-2.32a24.48,24.48,0,0,0,6.76-12ZM227,28.56h12.24V46.89H227Zm2.8,7.88h6.72V31h-6.72Zm6.72,8V38.85h-6.72V44.4Z"/></svg>