<svg id="图层_1" data-name="图层 1" xmlns="http://www.w3.org/2000/svg" viewBox="0 0 52.88 43.07"><defs><style>.cls-1{fill:#ff5353;fill-rule:evenodd;}</style></defs><title>icon</title><path class="cls-1" d="M35.8,13a16.23,16.23,0,0,1,1.8.11C36,5.6,27.92,0,18.72,0,8.43,0,0,7,0,15.92c0,5.14,2.8,9.36,7.49,12.64L5.62,34.18l6.54-3.28a32,32,0,0,0,6.56.94c.59,0,1.17,0,1.75-.07a14,14,0,0,1-.58-3.92c0-8.18,7-14.81,15.91-14.81ZM25.73,8a2.2,2.2,0,0,1,2.34,2.34,2.21,2.21,0,0,1-2.34,2.34,2.63,2.63,0,0,1-2.81-2.34A2.62,2.62,0,0,1,25.73,8Zm-13.1,4.68a2.63,2.63,0,0,1-2.82-2.34A2.62,2.62,0,0,1,12.64,8,2.2,2.2,0,0,1,15,10.29,2.21,2.21,0,0,1,12.64,12.64Z"/><path class="cls-1" d="M52.88,27.62C52.88,20.14,45.39,14,37,14c-8.9,0-15.92,6.1-15.92,13.58S28.08,41.2,37,41.2a23.51,23.51,0,0,0,5.62-.94l5.13,2.81L46.32,38.4c3.76-2.82,6.56-6.56,6.56-10.78ZM31.82,25.28a2,2,0,0,1-1.87-1.87,2,2,0,0,1,1.87-1.87,2.14,2.14,0,0,1,2.34,1.87,2.13,2.13,0,0,1-2.34,1.87Zm10.29,0a2,2,0,0,1-1.86-1.87,2,2,0,0,1,1.86-1.87,2.15,2.15,0,0,1,2.34,1.87A2.14,2.14,0,0,1,42.11,25.28Z"/></svg>