<svg id="图层_1" data-name="图层 1" xmlns="http://www.w3.org/2000/svg" viewBox="0 0 48.61 42.46"><defs><style>.cls-1{fill:#ff5352;}</style></defs><title>icon-主页</title><path class="cls-1" d="M28.06,42.46H13.76a8.19,8.19,0,0,1-8.18-8.18V23.5H1.79A1.8,1.8,0,0,1,.6,20.36L23.12.45a1.79,1.79,0,0,1,2.37,0L48,20.36a1.8,1.8,0,0,1,.49,2,1.78,1.78,0,0,1-1.67,1.16H43V34.28A8.15,8.15,0,0,1,39.2,41.2a1.79,1.79,0,0,1-1.91-3,4.57,4.57,0,0,0,2.15-3.89V21.71a1.79,1.79,0,0,1,1.79-1.79h.86L24.3,4.18,6.52,19.92h.85a1.79,1.79,0,0,1,1.79,1.79V34.28a4.6,4.6,0,0,0,4.6,4.59h14.3a1.8,1.8,0,1,1,0,3.59Z"/><path class="cls-1" d="M28,42.46a1.8,1.8,0,0,1,0-3.59,1.4,1.4,0,0,0,1.4-1.4V28.2A1.4,1.4,0,0,0,28,26.8H20.57a1.4,1.4,0,0,0-1.4,1.4v6a1.8,1.8,0,0,1-3.59,0v-6a5,5,0,0,1,5-5H28a5,5,0,0,1,5,5v9.27A5,5,0,0,1,28,42.46Z"/></svg>