<svg id="图层_1" data-name="图层 1" xmlns="http://www.w3.org/2000/svg" xmlns:xlink="http://www.w3.org/1999/xlink" viewBox="0 0 134.72 41.12"><defs><style>.cls-1{fill:url(#未命名的渐变_17);}.cls-2{fill:#fff;}</style><linearGradient id="未命名的渐变_17" y1="20.56" x2="134.72" y2="20.56" gradientUnits="userSpaceOnUse"><stop offset="0" stop-color="#faee00"/><stop offset="1" stop-color="#f8b62d"/></linearGradient></defs><title>icon</title><path class="cls-1" d="M122.72,0H0V26.4A14.73,14.73,0,0,0,14.73,41.12h120V12A12,12,0,0,0,122.72,0Z"/><path class="cls-2" d="M25.13,17.75h5.21l1.19-5.64H24V10.5H42.61v1.61H33.18L32,17.75h7.73v9.84h3.76v1.63H23.09V27.59h5.18L30,19.35H25.13Zm4.79,9.84H38V19.35h-6.4Z"/><path class="cls-2" d="M49.88,22A19.07,19.07,0,0,1,47.45,26l-1.1-1.28a17.44,17.44,0,0,0,3.28-6.15l1.49.34q-.18.6-.6,1.7h5.73V18.76H58v1.81h7.61V22H58v2.29h6.77v1.42H58v2.34H66.6v1.51H47.13V28.09h9.13V25.75H49.88V24.33h6.38V22ZM49.19,9.9H64.12V18H49.19Zm1.63,3.39H62.49v-2H50.82Zm11.67,3.33v-2H50.82v2Z"/><path class="cls-2" d="M78.84,10.25v1.56H71.6v7.75a27.5,27.5,0,0,1-1.86,10.6l-1.24-1.1A26.34,26.34,0,0,0,70,19.56V10.25ZM72.58,27.59a.85.85,0,0,0,.64-.8V15h5.32v6.49q0,1.56-1.63,1.56l-1.24,0-.39-1.33,1.17,0q.64,0,.64-.62v-4.7H74.67V27.06a30.35,30.35,0,0,0,3.88-1.74l.25,1.42A27.91,27.91,0,0,1,73.23,29ZM83.71,16.92h1.4v3.94A11.93,11.93,0,0,1,83.59,27,9.14,9.14,0,0,1,79,30.32L78.18,29a8.5,8.5,0,0,0,4.31-3,10.56,10.56,0,0,0,1.22-5.11Zm-4-6.7h9.66v1.51H85.15q-.18,1.45-.44,2.55h3.76V25.34H87V15.66H81.71v9.63H80.22v-11h3q.21-1.1.37-2.55h-3.9Zm6.08,15.5a32.92,32.92,0,0,1,4,3.53l-1.1,1.12a24,24,0,0,0-3.94-3.69Z"/><path class="cls-2" d="M92.77,13h1.67V30.22H92.77Zm3.42-4A25.06,25.06,0,0,1,99,13.14l-1.47.76a25.19,25.19,0,0,0-2.91-4.24Zm1.72,7.29h8.26V24.9H97.9Zm6.58,7V17.86H99.58v5.46Zm1.81,6.74-.41-1.54,2.52,0q1.31,0,1.31-1.51v-15h-8.9V10.5h10.57v17q0,2.57-2.64,2.57Z"/></svg>