<svg id="图层_1" data-name="图层 1" xmlns="http://www.w3.org/2000/svg" viewBox="0 0 285 70.25"><defs><style>.cls-1{fill:#ff5352;}.cls-2,.cls-3{fill:#fff;}.cls-3{fill-rule:evenodd;}</style></defs><title>icon</title><rect class="cls-1" width="285" height="70.25" rx="10.13" ry="10.13"/><path class="cls-2" d="M96.84,32.65H133v2.9H96.84Z"/><path class="cls-2" d="M138.17,30.44l-.28.6-2.25-1.45a56.8,56.8,0,0,0,4.15-13.89l2.74.56-.93,4.27h6.12v2.78h-6.88q-.77,2.58-1.89,5.39h8.65v2.58h-3.54v5h4.15v2.66h-4.15v9.26a25.58,25.58,0,0,0,4.07-2.74l.48,2.5a28,28,0,0,1-7.08,3.82l-1.17-2.42q1.09-.44,1.09-1.25V38.89h-4.51V36.24h4.51v-5h-3.26Zm34.78,19-.52,2.78H168q-9-.12-12.12-2.17a11.65,11.65,0,0,1-2.54-2.17,18.8,18.8,0,0,1-3.22,4.79l-2-1.93a18,18,0,0,0,3.42-5.19,28.47,28.47,0,0,1-3.34-8.45l2.17-.8a25.51,25.51,0,0,0,2.25,6.32,39.89,39.89,0,0,0,1.45-9.42h-4.79v-2a63.64,63.64,0,0,0,4.39-8.9h-4.67v-2.5h7.29v2.38a81.77,81.77,0,0,1-4,8.65h4.15v1.57a40.83,40.83,0,0,1-2,12.88A10.42,10.42,0,0,0,158,48.07q2.62,1.29,8.57,1.53Q169.81,49.6,173,49.44ZM170.5,32.89h-5.6V36h6v2.29h-6v3.18h7v2.42h-7v3.94h-2.62V43.88h-5.39V41.47h5.39V38.29H157.9V36h4.39v-3.1h-4V30.56h4V27.3h-5.35V25h5.35V21.54h-4V19.21h4v-3h2.62v3h5.6V25h1.89V27.3H170.5Zm-5.6-11.35V25H168V21.54Zm0,5.76v3.26H168V27.3Z"/><path class="cls-2" d="M176.7,52.46l-.6-2.78a31,31,0,0,0,3.22.2Q181,49.88,181,48V38.61q-2.3.89-5.19,1.73l-.72-2.86A60,60,0,0,0,181,35.75V26.17h-5.27V23.4H181V16h2.9V23.4h3.82v2.78H183.9v8.45q2.3-1,4.79-2.25v2.9q-2.21,1.09-4.79,2.17V48.75q0,3.7-3.58,3.7Zm12.4-24.71q1.21-5.76,1.81-10l2.7.28q-.56,3.38-1.29,7h4q.6-4.06,1-9.26h2.86q-.52,5.43-1.17,9.26h12.44v2.66H198.51q-.73,3.46-1.25,5.47h12.12v2.5a32.54,32.54,0,0,1-5.23,9.66,34.27,34.27,0,0,0,8.33,5.19l-1.57,2.54a34.25,34.25,0,0,1-8.53-5.72,26.84,26.84,0,0,1-8.57,5.84l-1.57-2.46a25.56,25.56,0,0,0,8.33-5.27,22,22,0,0,1-4.59-8,47.86,47.86,0,0,1-8.86,15l-1.85-2.33a40.55,40.55,0,0,0,8.61-14.81,60,60,0,0,0,1.93-7.57Zm17.43,8.05H198a19.33,19.33,0,0,0,4.31,7.81A24.4,24.4,0,0,0,206.52,35.79Zm-1.17-20a48.86,48.86,0,0,1,5,6.16l-2.29,1.57a46.71,46.71,0,0,0-5-6.32Z"/><path class="cls-2" d="M224.4,34.54h-9.22V31.77h36.19v2.78h-24L226,39.25h19.68q-.36,9.62-1.85,11.55t-5.55,1.81a53.31,53.31,0,0,1-5.35-.24l-1-2.66q3.22.24,5.68.24,3.26,0,4-1.33t1.09-6.76H222.5Zm-2.9-17.11h23.59V28.31H221.5Zm20.61,8.25V20.05H224.48v5.64Z"/><path class="cls-3" d="M59.79,27.36a13.92,13.92,0,0,0,2.49-4.6,18.39,18.39,0,0,0,.87-5.7,9.1,9.1,0,0,1,3.19,1.68A3.09,3.09,0,0,1,67.12,21a10.52,10.52,0,0,1-1.22,4.87c-.83,1.6-1.68,2.39-2.56,2.39A6.18,6.18,0,0,1,62,28c-.57-.15-1.3-.37-2.18-.66ZM34.9,54.25a34.51,34.51,0,0,1-5.43-8.75,23.11,23.11,0,0,1-1.66-8.75,24.74,24.74,0,0,1,2-9.76,25.44,25.44,0,0,1,5.71-8.33,26.28,26.28,0,0,1,8.54-5.55,27,27,0,0,1,20.1,0,26.31,26.31,0,0,1,8.52,5.57A25.54,25.54,0,0,1,78.4,27a24.64,24.64,0,0,1,0,19.53,25.1,25.1,0,0,1-5.73,8.31,26.72,26.72,0,0,1-18.56,7.53q-6.33,0-10.14-2c-2.55-1.32-3.81-3.05-3.81-5.19a3.83,3.83,0,0,1,.25-1.35,5.77,5.77,0,0,1,.85-1.4,5.3,5.3,0,0,0,1,.78,1.72,1.72,0,0,0,.83.25,3.57,3.57,0,0,0,1.77-1A16.15,16.15,0,0,0,47.3,50,13.67,13.67,0,0,0,49,47.1,7.47,7.47,0,0,0,49.65,45c0-.18-.28-.59-.82-1.22A2.91,2.91,0,0,1,48,41.9a10.63,10.63,0,0,1,.76-3.4,47.9,47.9,0,0,1,2.2-5,30.55,30.55,0,0,1,2.73-4.63,4.76,4.76,0,0,1,2.15-1.7A3.7,3.7,0,0,1,56.7,27a3.68,3.68,0,0,0,2.84-1.6A15.23,15.23,0,0,0,61,21.73,13.76,13.76,0,0,0,61.7,18a2.54,2.54,0,0,0-.41-1.69,2.35,2.35,0,0,0-1.7-.44,18.49,18.49,0,0,0-3.45.28,5.53,5.53,0,0,0-2.16.82A17.85,17.85,0,0,0,51.1,20q-2,2.44-4.06,5.58a60.88,60.88,0,0,0-6.19,12.24q-2.43,6.51-2.42,9.76a3.61,3.61,0,0,0,.29,1.34,13,13,0,0,0,1,1.87,9.34,9.34,0,0,0-1.49,2.42,6.41,6.41,0,0,0-.49,2.41q0,4.05,4.49,6.62t11.85,2.57a29.18,29.18,0,0,0,11-2.16,28.74,28.74,0,0,0,9.41-6.08,27.76,27.76,0,0,0,6.27-9.13A27,27,0,0,0,83,36.74a26.74,26.74,0,0,0-2.19-10.68A28.8,28.8,0,0,0,65.16,10.83,29.33,29.33,0,0,0,54.11,8.71a29,29,0,0,0-11,2.13,28.71,28.71,0,0,0-9.35,6.1A27.53,27.53,0,0,0,27.49,26a27.06,27.06,0,0,0-2.21,10.72,25.91,25.91,0,0,0,1.52,9,22,22,0,0,0,4.49,7.39,5.3,5.3,0,0,0,1.21,1,2.15,2.15,0,0,0,1.11.36,2.92,2.92,0,0,0,.48-.08c.22-.05.49-.14.81-.23Zm9.69.12a17,17,0,0,0,4.06-3.93,14.23,14.23,0,0,0,2.27-4.89,12,12,0,0,1,2.31,1.78,2.08,2.08,0,0,1,.6,1.39,7.86,7.86,0,0,1-2,4.52q-2,2.6-3.8,2.6a3.9,3.9,0,0,1-1.42-.38A15.45,15.45,0,0,1,44.58,54.36Z"/></svg>