<?xml version="1.0" encoding="utf-8"?>
<!-- Generator: Adobe Illustrator 22.0.1, SVG Export Plug-In . SVG Version: 6.00 Build 0)  -->
<svg version="1.1" id="图层_1" xmlns="http://www.w3.org/2000/svg" xmlns:xlink="http://www.w3.org/1999/xlink" x="0px" y="0px"
	 viewBox="0 0 48.6 42.5" style="enable-background:new 0 0 48.6 42.5;" xml:space="preserve">
<style type="text/css">
	.st0{fill:#FF5352;}
</style>
<title>icon-主页</title>
<g>
	<path class="st0" d="M18.4,0.9L32.3,18l0.4-16.2c-2.6-1.1-5.4-1.7-8.4-1.7C22.3,0.1,20.3,0.4,18.4,0.9z"/>
	<path class="st0" d="M5.8,11l21.9,2.2L16.5,1.6c-2.6,1-5.1,2.6-7.2,4.7C7.9,7.7,6.7,9.3,5.8,11z"/>
	<path class="st0" d="M4,27.1l17.1-13.9L4.9,12.8c-1.1,2.6-1.7,5.4-1.7,8.4C3.2,23.3,3.5,25.2,4,27.1z"/>
	<path class="st0" d="M14.1,39.7l2.2-21.9L4.6,29c1,2.6,2.6,5.1,4.7,7.2C10.8,37.6,12.4,38.8,14.1,39.7z"/>
	<path class="st0" d="M30.2,41.5L16.3,24.5l-0.4,16.2c2.6,1.1,5.4,1.7,8.4,1.7C26.3,42.4,28.3,42.1,30.2,41.5z"/>
	<path class="st0" d="M42.8,31.4l-21.9-2.2l11.2,11.7c2.6-1,5.1-2.6,7.2-4.7C40.7,34.7,41.9,33.1,42.8,31.4z"/>
	<path class="st0" d="M44.6,15.4L27.5,29.3l16.2,0.4c1.1-2.6,1.7-5.4,1.7-8.4C45.4,19.2,45.2,17.2,44.6,15.4z"/>
	<path class="st0" d="M34.5,2.7l-2.2,21.9L44,13.5c-1-2.6-2.6-5.1-4.7-7.2C37.8,4.8,36.2,3.7,34.5,2.7z"/>
</g>
</svg>
